<?xml version="1.0" encoding="UTF-8"?>
<svg id="Capa_2" data-name="Capa 2" xmlns="http://www.w3.org/2000/svg" viewBox="0 0 394.2 99.99">
  <defs>
    <style>
      .cls-1 {
        fill: #e6b325;
      }

      .cls-2 {
        fill: #bf9742;
      }

      .cls-3 {
        fill: #828487;
      }
    </style>
  </defs>
  <g id="Layer_1" data-name="Layer 1">
    <g>
      <path class="cls-1" d="M76.96,3.81h-29.44V70.04h-15.56V7.81h-5.18V74.93h21.1c-.57,13.06-9.46,20.26-21.42,20.26s-21.67-8.82-21.67-21.58H0c0,15.63,11.22,26.37,26.46,26.37s25.94-9.35,26.53-25.05h16.75v-4.89h-16.72v-22.31h23.93c29.15,0,29.15-43.92,0-43.92Zm0,39.22h-23.93V11.81l-.33,.29v-3.49h24.26c22.34,0,22.34,34.42,0,34.42Z"/>
      <path class="cls-3" d="M159.39,37.41c-.24,.59-.72,.98-1.42,1.18-.71,.2-1.83,.3-3.36,.3-.08,0-.12,.12-.12,.36s.04,.36,.12,.36c1.29,0,2.32-.02,3.09-.06l4.06-.06,5.27,.06c.93,.04,2.22,.06,3.88,.06,.12,0,.18-.12,.18-.36s-.06-.36-.18-.36c-2.14,0-3.71-.12-4.69-.36-.99-.24-1.66-.66-2-1.24-.34-.58-.52-1.52-.52-2.82V6.79c0-1.37,.14-2.35,.42-2.94,.28-.58,.75-.96,1.39-1.12,.65-.16,1.7-.24,3.15-.24,2.71,0,4.93,.92,6.66,2.76,1.74,1.84,2.6,4.35,2.6,7.54s-.92,5.78-2.76,7.51c-1.84,1.74-4.09,2.6-6.75,2.6-.81,0-1.54-.08-2.18-.24-.08-.04-.15,0-.21,.12s-.09,.24-.09,.36c0,.2,.06,.3,.18,.3,.77,.2,1.74,.3,2.91,.3,2.18,0,4.3-.44,6.36-1.33,2.06-.89,3.75-2.24,5.06-4.06,1.31-1.82,1.97-4.06,1.97-6.72,0-3.39-1.12-5.92-3.36-7.57-2.24-1.66-5.22-2.48-8.94-2.48-.77,0-1.68,.03-2.73,.09-1.05,.06-1.82,.09-2.3,.09-1.25,.12-2.38,.18-3.39,.18s-2.36-.04-4.06-.12l-3.03-.06c-.08,0-.12,.12-.12,.36s.04,.36,.12,.36c1.53,0,2.66,.11,3.36,.33,.71,.22,1.18,.62,1.42,1.18,.24,.57,.36,1.45,.36,2.67v28.05c0,1.21-.12,2.11-.36,2.7Z"/>
      <path class="cls-3" d="M201.62,39.62c.08,0,.12-.12,.12-.36s-.04-.36-.12-.36c-1.57,0-2.73-.1-3.45-.3-.73-.2-1.22-.6-1.48-1.18-.26-.58-.39-1.48-.39-2.7v-14.18h23.26v14.18c0,1.21-.13,2.11-.39,2.7-.26,.59-.76,.98-1.48,1.18-.73,.2-1.88,.3-3.45,.3-.12,0-.18,.12-.18,.36s.06,.36,.18,.36c1.21,0,2.18-.02,2.91-.06l4.42-.06,4.18,.06c.73,.04,1.71,.06,2.97,.06,.12,0,.18-.12,.18-.36s-.06-.36-.18-.36c-1.54,0-2.67-.1-3.39-.3-.73-.2-1.22-.6-1.48-1.18-.26-.58-.39-1.48-.39-2.7V6.66c0-1.21,.13-2.1,.39-2.67,.26-.57,.76-.96,1.48-1.18,.73-.22,1.86-.33,3.39-.33,.12,0,.18-.12,.18-.36s-.06-.36-.18-.36l-2.97,.06c-1.7,.08-3.09,.12-4.18,.12-1.17,0-2.65-.04-4.42-.12l-2.91-.06c-.12,0-.18,.12-.18,.36s.06,.36,.18,.36c1.57,0,2.72,.12,3.45,.36,.73,.24,1.22,.66,1.48,1.24,.26,.59,.39,1.48,.39,2.7v12.48h-23.26V6.79c0-1.21,.13-2.11,.39-2.7,.26-.58,.77-1,1.51-1.24,.75-.24,1.89-.36,3.42-.36,.08,0,.12-.12,.12-.36s-.04-.36-.12-.36l-2.91,.06c-1.78,.08-3.25,.12-4.42,.12-1.01,0-2.36-.04-4.06-.12l-3.09-.06c-.08,0-.12,.12-.12,.36s.04,.36,.12,.36c1.53,0,2.67,.11,3.39,.33,.73,.22,1.22,.62,1.48,1.18,.26,.57,.39,1.45,.39,2.67v28.05c0,1.21-.13,2.11-.39,2.7-.26,.59-.77,.98-1.51,1.18-.75,.2-1.89,.3-3.42,.3-.08,0-.12,.12-.12,.36s.04,.36,.12,.36c1.29,0,2.3-.02,3.03-.06l4.18-.06,4.36,.06c.73,.04,1.72,.06,2.97,.06Z"/>
      <path class="cls-3" d="M243.08,37.71c2.93,1.76,6.27,2.63,10.03,2.63s7.32-.89,10.57-2.67c3.25-1.78,5.85-4.2,7.78-7.27s2.91-6.44,2.91-10.12c0-3.31-.78-6.44-2.33-9.39-1.55-2.95-3.79-5.32-6.69-7.12-2.91-1.8-6.28-2.7-10.12-2.7-3.43,0-6.8,.75-10.09,2.24-3.29,1.5-5.99,3.73-8.09,6.69s-3.15,6.53-3.15,10.69c0,3.55,.8,6.84,2.39,9.84,1.59,3.01,3.86,5.39,6.79,7.15Zm-.82-30.93c2.5-2.87,5.98-4.3,10.42-4.3,3.43,0,6.43,.83,9,2.48,2.56,1.66,4.55,3.96,5.97,6.91,1.41,2.95,2.12,6.32,2.12,10.12,0,3.59-.64,6.67-1.91,9.24-1.27,2.57-3.01,4.51-5.21,5.85-2.2,1.33-4.67,2-7.42,2-3.23,0-6.12-.9-8.66-2.7-2.54-1.8-4.52-4.26-5.94-7.39s-2.12-6.59-2.12-10.39c0-5.01,1.25-8.95,3.76-11.81Z"/>
      <path class="cls-3" d="M312.05,0c-.2,0-.32,.08-.36,.24-.2,.61-.66,1.01-1.36,1.21-.71,.2-1.79,.3-3.24,.3l-4.12,.06c-2.67,.08-5.19,.12-7.57,.12-4.64,0-8.7-.06-12.18-.18-2.18,0-3.27-.44-3.27-1.33,0-.2-.11-.3-.33-.3s-.33,.1-.33,.3c0,1.17-.1,2.93-.3,5.27-.2,2.34-.38,4.24-.55,5.69,0,.08,.11,.12,.33,.12s.33-.04,.33-.12c.56-3.11,1.48-5.31,2.76-6.6,1.27-1.29,3.16-1.94,5.66-1.94,1.86,0,3.17,.07,3.94,.21,.77,.14,1.29,.46,1.58,.97,.28,.5,.42,1.38,.42,2.63v28.05c0,1.21-.15,2.11-.45,2.7-.3,.59-.86,.98-1.67,1.18-.81,.2-2.08,.3-3.82,.3-.08,0-.12,.12-.12,.36s.04,.36,.12,.36c1.41,0,2.52-.02,3.33-.06l4.54-.06,4.73,.06c.81,.04,1.88,.06,3.21,.06,.12,0,.18-.12,.18-.36s-.06-.36-.18-.36c-1.74,0-3.01-.1-3.82-.3-.81-.2-1.35-.58-1.64-1.15-.28-.57-.42-1.47-.42-2.73V6.79c0-1.25,.14-2.14,.42-2.67,.28-.52,.81-.87,1.58-1.03,.77-.16,2.06-.24,3.88-.24,2.71,0,4.64,.64,5.82,1.91,1.17,1.27,1.82,3.48,1.94,6.63,0,.08,.12,.12,.36,.12s.36-.04,.36-.12c0-1.49,.06-3.43,.18-5.82,.12-2.38,.24-4.16,.36-5.33,0-.16-.1-.24-.3-.24Z"/>
      <path class="cls-3" d="M325.9,37.71c2.93,1.76,6.27,2.63,10.03,2.63s7.32-.89,10.57-2.67c3.25-1.78,5.85-4.2,7.78-7.27s2.91-6.44,2.91-10.12c0-3.31-.78-6.44-2.33-9.39-1.55-2.95-3.79-5.32-6.69-7.12-2.91-1.8-6.28-2.7-10.12-2.7-3.43,0-6.8,.75-10.09,2.24-3.29,1.5-5.99,3.73-8.09,6.69s-3.15,6.53-3.15,10.69c0,3.55,.8,6.84,2.39,9.84,1.59,3.01,3.86,5.39,6.79,7.15Zm-.82-30.93c2.5-2.87,5.98-4.3,10.42-4.3,3.43,0,6.43,.83,9,2.48,2.56,1.66,4.55,3.96,5.97,6.91,1.41,2.95,2.12,6.32,2.12,10.12,0,3.59-.64,6.67-1.91,9.24-1.27,2.57-3.01,4.51-5.21,5.85-2.2,1.33-4.67,2-7.42,2-3.23,0-6.12-.9-8.66-2.7-2.54-1.8-4.52-4.26-5.94-7.39s-2.12-6.59-2.12-10.39c0-5.01,1.25-8.95,3.76-11.81Z"/>
      <path class="cls-3" d="M192.35,81.35c-2.1,.12-4.1,.18-6,.18s-4.48-.1-7.63-.3c-.08,0-.15,.05-.21,.15-.06,.1-.09,.21-.09,.33,0,.32,.12,.48,.36,.48,2.26,0,3.85,.14,4.76,.42s1.49,.84,1.76,1.67c.26,.83,.39,2.29,.39,4.39,0,2.71-.59,4.61-1.76,5.72-1.17,1.11-3.19,1.67-6.06,1.67-4.04,0-7.46-.94-10.27-2.82-2.81-1.88-4.92-4.33-6.33-7.36-1.41-3.03-2.12-6.26-2.12-9.69s.74-6.59,2.21-9.24c1.47-2.65,3.49-4.68,6.06-6.12,2.56-1.43,5.44-2.15,8.63-2.15,6.54,0,10.74,3.31,12.6,9.94,.04,.16,.17,.22,.39,.18,.22-.04,.33-.12,.33-.24l-.73-7.15c-.04-.49-.08-.79-.12-.91-.04-.12-.22-.26-.55-.42-1.25-.77-2.83-1.35-4.73-1.76-1.9-.4-3.92-.61-6.06-.61-4.28,0-8.15,.79-11.6,2.36s-6.17,3.83-8.15,6.75c-1.98,2.93-2.97,6.35-2.97,10.27,0,3.63,.87,6.97,2.6,10,1.74,3.03,4.25,5.43,7.54,7.21,3.29,1.78,7.16,2.67,11.6,2.67,3.59,0,7.85-.55,12.78-1.64,.28-.08,.46-.16,.55-.24,.08-.08,.12-.24,.12-.49,0-.2-.07-.69-.21-1.45-.14-.77-.21-2.06-.21-3.88,0-2.3,.06-3.92,.18-4.85s.38-1.54,.79-1.85c.4-.3,1.11-.43,2.12-.39,.2,0,.3-.14,.3-.42,0-.08-.03-.17-.09-.27-.06-.1-.13-.15-.21-.15Z"/>
      <path class="cls-3" d="M277.82,95.53c-1.33,0-2.48-.51-3.45-1.54s-2.14-3.04-3.51-6.03l-14.3-30.11c-.04-.12-.16-.18-.36-.18s-.34,.06-.42,.18l-12.78,30.17c-.85,2.02-1.63,3.56-2.33,4.63-.71,1.07-1.45,1.82-2.24,2.24-.73,.39-1.62,.6-2.65,.63-1.66-.06-3.35-.67-5.08-1.87-1.82-1.25-3.91-3.28-6.27-6.09-2.28-2.71-5.11-6.48-8.47-11.28,.03-.02,.07-.03,.1-.04,2.12-1.03,3.81-2.42,5.06-4.18s1.88-3.71,1.88-5.85c0-2.42-.87-4.36-2.61-5.82s-4.2-2.18-7.39-2.18c-1.17,0-2.53,.06-4.06,.18-.53,.04-1.17,.08-1.94,.12-.77,.04-1.6,.06-2.48,.06-1.05,0-2.42-.04-4.12-.12l-2.97-.06c-.12,0-.18,.12-.18,.36s.06,.36,.18,.36c1.53,0,2.65,.11,3.36,.33,.71,.22,1.19,.62,1.45,1.18,.26,.57,.39,1.45,.39,2.67v28.05c0,1.21-.14,2.1-.42,2.67-.28,.57-.79,.96-1.52,1.18-.73,.22-1.86,.33-3.39,.33-.08,0-.12,.12-.12,.36s.04,.36,.12,.36c1.33,0,2.36-.02,3.09-.06l4.12-.06,4.18,.06c.73,.04,1.71,.06,2.97,.06,.12,0,.18-.12,.18-.36s-.06-.36-.18-.36c-1.54,0-2.66-.1-3.36-.3s-1.18-.58-1.42-1.15c-.24-.57-.36-1.47-.36-2.73v-13.75c1.58,.12,2.48,.18,2.73,.18,1.16,0,2.28-.13,3.37-.36,3.82,5.76,7.11,10.32,9.86,13.66,2.85,3.45,4.78,5.18,5.79,5.18h7.75s0,0,0,0c.72-.01,1.56-.05,2.54-.12,1.37-.08,2.58-.12,3.63-.12,1.13,0,2.46,.04,4,.12,1.37,.08,2.42,.12,3.15,.12,.2,0,.3-.12,.3-.36s-.1-.36-.3-.36c-3.96,0-5.94-1.19-5.94-3.57,0-.89,.28-2.02,.85-3.39l3.79-8.97h14.48l5.42,11.45c.49,1.09,.73,1.94,.73,2.54,0,.73-.33,1.23-1,1.51-.67,.28-1.77,.42-3.3,.42-.16,0-.24,.12-.24,.36s.08,.36,.24,.36c.69,0,1.68-.04,2.97-.12,1.37-.08,2.5-.12,3.39-.12,.73,0,1.9,.04,3.51,.12,1.62,.08,2.81,.12,3.57,.12,.16,0,.24-.12,.24-.36s-.08-.36-.24-.36Zm-71.3-19.39v-12.72c0-1.74,.3-2.89,.91-3.45,.61-.57,1.7-.85,3.27-.85,2.67,0,4.7,.69,6.09,2.06,1.39,1.37,2.09,3.63,2.09,6.79,0,2.87-.68,4.99-2.03,6.36-1.36,1.37-3.61,2.06-6.76,2.06-1.41,0-2.61-.08-3.57-.24Zm42.04,2.24l6.32-14.95,7.07,14.95h-13.39Z"/>
      <path class="cls-3" d="M304.99,60.69c-2.24-1.66-5.22-2.48-8.94-2.48-.77,0-1.68,.03-2.73,.09-1.05,.06-1.82,.09-2.3,.09-1.25,.12-2.38,.18-3.39,.18s-2.36-.04-4.06-.12l-3.03-.06c-.08,0-.12,.12-.12,.36s.04,.36,.12,.36c1.54,0,2.66,.11,3.36,.33,.71,.22,1.18,.62,1.42,1.18,.24,.57,.36,1.45,.36,2.67v28.05c0,1.21-.12,2.11-.36,2.7-.24,.59-.72,.98-1.42,1.18-.71,.2-1.83,.3-3.36,.3-.08,0-.12,.12-.12,.36s.04,.36,.12,.36c1.29,0,2.32-.02,3.09-.06l4.06-.06,5.27,.06c.93,.04,2.22,.06,3.88,.06,.12,0,.18-.12,.18-.36s-.06-.36-.18-.36c-2.14,0-3.71-.12-4.7-.36-.99-.24-1.66-.66-2-1.24-.34-.58-.51-1.52-.51-2.82v-27.68c0-1.37,.14-2.35,.42-2.94,.28-.58,.75-.96,1.39-1.12,.65-.16,1.7-.24,3.15-.24,2.71,0,4.93,.92,6.66,2.76s2.61,4.35,2.61,7.54-.92,5.78-2.76,7.51c-1.84,1.74-4.09,2.61-6.75,2.61-.81,0-1.54-.08-2.18-.24-.08-.04-.15,0-.21,.12s-.09,.24-.09,.36c0,.2,.06,.3,.18,.3,.77,.2,1.74,.3,2.91,.3,2.18,0,4.3-.44,6.36-1.33s3.75-2.24,5.06-4.06,1.97-4.06,1.97-6.72c0-3.39-1.12-5.92-3.36-7.57Z"/>
      <path class="cls-3" d="M349.76,60.63c.26-.57,.76-.96,1.48-1.18,.73-.22,1.86-.33,3.39-.33,.12,0,.18-.12,.18-.36s-.06-.36-.18-.36l-2.97,.06c-1.7,.08-3.09,.12-4.18,.12-1.17,0-2.65-.04-4.42-.12l-2.91-.06c-.12,0-.18,.12-.18,.36s.06,.36,.18,.36c1.57,0,2.73,.12,3.45,.36,.73,.24,1.22,.66,1.48,1.24,.26,.59,.39,1.48,.39,2.7v12.48h-23.26v-12.48c0-1.21,.13-2.11,.39-2.7,.26-.58,.77-1,1.51-1.24,.75-.24,1.89-.36,3.42-.36,.08,0,.12-.12,.12-.36s-.04-.36-.12-.36l-2.91,.06c-1.78,.08-3.25,.12-4.42,.12-1.01,0-2.36-.04-4.06-.12l-3.09-.06c-.08,0-.12,.12-.12,.36s.04,.36,.12,.36c1.53,0,2.67,.11,3.39,.33,.73,.22,1.22,.62,1.48,1.18,.26,.57,.39,1.45,.39,2.67v28.05c0,1.21-.13,2.11-.39,2.7-.26,.59-.77,.98-1.51,1.18-.75,.2-1.89,.3-3.42,.3-.08,0-.12,.12-.12,.36s.04,.36,.12,.36c1.29,0,2.3-.02,3.03-.06l4.18-.06,4.36,.06c.73,.04,1.72,.06,2.97,.06,.08,0,.12-.12,.12-.36s-.04-.36-.12-.36c-1.57,0-2.73-.1-3.45-.3-.73-.2-1.22-.6-1.48-1.18-.26-.58-.39-1.48-.39-2.7v-14.18h23.26v14.18c0,1.21-.13,2.11-.39,2.7-.26,.59-.76,.98-1.48,1.18-.73,.2-1.88,.3-3.45,.3-.12,0-.18,.12-.18,.36s.06,.36,.18,.36c1.21,0,2.18-.02,2.91-.06l4.42-.06,4.18,.06c.73,.04,1.72,.06,2.97,.06,.12,0,.18-.12,.18-.36s-.06-.36-.18-.36c-1.54,0-2.67-.1-3.39-.3-.73-.2-1.22-.6-1.48-1.18-.26-.58-.39-1.48-.39-2.7v-28.05c0-1.21,.13-2.1,.39-2.67Z"/>
      <path class="cls-3" d="M394.08,58.39l-2.24,.06c-.97,.08-1.8,.12-2.48,.12-1.29,0-2.71-.04-4.24-.12l-2.85-.06c-.08,0-.12,.12-.12,.36s.04,.36,.12,.36c2.18,0,3.27,.73,3.27,2.18,0,.97-.44,2.16-1.33,3.57l-7.38,11.31-9.77-14.34c-.4-.52-.61-1.01-.61-1.45,0-.85,1.05-1.27,3.15-1.27,.08,0,.12-.12,.12-.36s-.04-.36-.12-.36l-3.27,.06c-2.1,.08-3.84,.12-5.21,.12l-2.12-.06c-.97-.08-1.7-.12-2.18-.12-.12,0-.18,.12-.18,.36s.06,.36,.18,.36c1.33,0,2.5,.34,3.51,1.03,1.01,.69,2.08,1.9,3.21,3.63l10.06,14.75v12.82c0,1.21-.13,2.11-.39,2.7-.26,.59-.75,.98-1.45,1.18s-1.83,.3-3.36,.3c-.12,0-.18,.12-.18,.36s.06,.36,.18,.36c1.25,0,2.24-.02,2.97-.06l4.18-.06,4.24,.06c.69,.04,1.66,.06,2.91,.06,.12,0,.18-.12,.18-.36s-.06-.36-.18-.36c-1.54,0-2.66-.1-3.36-.3-.71-.2-1.18-.58-1.42-1.15-.24-.57-.36-1.47-.36-2.73v-13.77l8.12-12.46c1.17-1.86,2.5-3.32,4-4.39,1.49-1.07,2.97-1.61,4.42-1.61,.08,0,.12-.12,.12-.36s-.04-.36-.12-.36Z"/>
      <rect class="cls-2" x="123.41" y="18.9" width="1" height="66"/>
    </g>
  </g>
</svg>